PathFileType	3	(X/Y/Z)	D:\minhoCalibration\240510\subject3_KPNP\preferred\preferred13.trc
DataRate	CameraRate	NumFrames	NumMarkers	Units	OrigDataRate	OrigDataStartFrame	OrigNumFrames
200.0	200.0	12	10	mm	200.0	688	131	
Frame#	Time	Left_Ankle_Outer1			Left_Ankle_Inner1			Left_Knee_Outer1			Left_Knee_Inner1			Left_Wrist1			Right_Wrist1			Right_Knee_Inner1			Right_Knee_Outer1			Right_Ankle_Inner1			Right_Ankle_Outer1			
		X1	Y1	Z1	X2	Y2	Z2	X3	Y3	Z3	X4	Y4	Z4	X5	Y5	Z5	X6	Y6	Z6	X7	Y7	Z7	X8	Y8	Z8	X9	Y9	Z9	X10	Y10	Z10	
688	3.43	-319.55615	128.86838	-505.43713	-369.74173	148.64226	-482.89035	-144.84613	525.61682	-443.01721	-213.26843	545.99597	-368.03738	-166.19429	892.26202	-698.95605	-362.22186	1110.3999	-465.11838	-285.01227	982.88831	-82.304192	-300.80716	1077.7567	-124.76921	-579.40472	929.37012	234.0275	-596.73456	1030.9733	233.33359
689	3.435	-320.86115	128.37433	-505.43719	-370.78491	148.05087	-483.22684	-145.42752	524.64539	-442.7886	-213.85634	544.995	-367.53537	-169.83325	888.19385	-698.79968	-360.66437	1111.3882	-467.64874	-286.11218	990.46533	-84.834679	-303.69965	1081.0863	-128.73209	-532.87317	955.65979	272.54745	-553.3197	1056.7708	264.82532
690	3.44	-321.28851	128.50737	-506.26312	-372.10965	147.52774	-483.49567	-146.02165	523.79852	-442.84976	-214.0233	544.15363	-367.46002	-173.29578	884.58075	-697.84442	-359.70938	1112.4713	-469.55609	-288.26379	996.74377	-86.372437	-308.22852	1083.5562	-131.76558	-479.60797	981.83752	301.93948	-506.39325	1081.1558	288.41934
691	3.445	-323.69128	127.36942	-506.35846	-373.5097	146.85472	-483.767	-146.45877	522.84271	-443.27292	-214.18018	542.82379	-368.42996	-176.53178	881.78241	-695.92029	-359.61984	1113.8201	-470.54828	-290.98279	1002.0378	-87.500008	-316.60904	1084.9998	-133.89702	-435.68552	1001.9977	316.37698	-456.06152	1101.7458	302.97467
692	3.45	-324.74356	127.41944	-507.34503	-375.31659	146.29379	-484.00308	-147.08722	521.7738	-443.79062	-214.60547	542.43066	-367.2323	-179.77164	879.86792	-692.79126	-360.21371	1115.6508	-470.50232	-293.14249	1005.9352	-88.823074	-327.68372	1087.3113	-134.90242	-400.28363	1028.3295	322.21439	-415.77542	1127.9077	302.16739
693	3.455	-326.9957	126.77151	-507.9397	-377.38614	145.66643	-484.22729	-147.62135	520.56219	-444.66351	-214.60162	541.29163	-367.24713	-182.23947	879.12396	-688.66046	-360.31815	1117.7092	-469.11786	-292.45825	1007.4463	-89.824463	-339.34137	1091.5992	-135.24864	-379.32806	1041.2528	321.60733	-393.61212	1140.8883	296.1496
694	3.46	-330.57089	125.27536	-507.71576	-379.45517	144.86104	-484.49002	-148.08905	519.34167	-445.47113	-214.51608	539.45288	-367.88083	-184.27242	879.05652	-683.50702	-361.6387	1119.0619	-467.00937	-287.86783	1006.5854	-89.907539	-351.17572	1093.4357	-135.37708	-377.45779	1054.8149	325.31018	-385.68295	1152.1545	290.737
695	3.465	-331.3356	125.31201	-509.41281	-381.25958	144.05374	-484.90817	-149.03656	518.09332	-445.90189	-214.57602	538.4599	-365.84662	-185.64375	879.2514	-677.90588	-363.27396	1119.4044	-464.45926	-280.65274	1008.0024	-89.771965	-361.28122	1093.653	-135.89609	-375.58749	1060.2017	321.62515	-387.84964	1160.2515	294.84219
696	3.47	-333.87247	124.07246	-509.48779	-383.05234	143.17006	-485.25104	-150.0701	516.82361	-446.2869	-214.22482	536.6571	-364.88824	-186.29361	879.53986	-672.07941	-366.21954	1118.5183	-461.31839	-273.41351	1013.4101	-88.926445	-360.93445	1095.6879	-136.86786	-374.70316	1054.1884	315.90668	-390.91644	1156.2649	296.78348
697	3.475	-335.37164	123.16841	-509.88831	-384.56757	142.18092	-485.6264	-151.63387	515.56091	-446.12888	-214.36914	534.39496	-363.66696	-186.23203	879.61902	-666.68378	-369.37048	1116.9854	-458.21017	-269.03168	1019.1358	-88.040199	-349.49954	1102.1901	-133.22908	-375.6908	1048.8123	318.43585	-394.53195	1149.426	297.90543
698	3.48	-335.68707	122.90124	-510.70856	-385.80112	141.07657	-486.17834	-153.5186	514.58929	-445.45047	-215.02682	532.11035	-362.53119	-185.39053	879.94019	-662.32495	-372.58029	1115.1708	-455.11066	-267.63763	1023.9333	-88.026436	-333.97748	1106.9913	-127.58449	-371.77039	1040.0719	315.82199	-400.6933	1143.0438	301.73755
699	3.485	-336.63885	121.82224	-511.13998	-386.93454	139.80698	-486.99612	-155.70563	513.59387	-444.26715	-216.33878	530.38605	-360.97113	-184.20753	880.28577	-658.99268	-375.58127	1113.1671	-451.91858	-267.90643	1027.2719	-88.540352	-318.2099	1106.1125	-124.9908	-373.24457	1038.762	320.20508	-405.48654	1136.8951	303.31317
